<!-- Generated by IcoMoon.io -->
<svg version="1.1" xmlns="http://www.w3.org/2000/svg" width="24" height="24" viewBox="0 0 512 512">
<title></title>
<g id="icomoon-ignore">
</g>
<path d="M256.24 210.953l169.101-168.643c12.512-12.482 32.772-12.459 45.255 0.053s12.459 32.773-0.053 45.255l-169.029 168.57 168.955 168.812c12.502 12.492 12.509 32.754 0.017 45.255s-32.753 12.509-45.255 0.017l-169.033-168.889-169.091 168.633c-12.511 12.482-32.773 12.459-45.255-0.053s-12.459-32.772 0.053-45.255l169.019-168.561-168.854-168.71c-12.502-12.492-12.508-32.754-0.017-45.255s32.753-12.508 45.255-0.017l168.931 168.788z"></path>
</svg>
