<svg width="40" height="40" viewBox="0 0 40 40" fill="none" xmlns="http://www.w3.org/2000/svg">
<path d="M11.668 18.3333H15.0013V21.6667H11.668V18.3333ZM11.668 25H15.0013V28.3333H11.668V25ZM18.3346 18.3333H21.668V21.6667H18.3346V18.3333ZM18.3346 25H21.668V28.3333H18.3346V25ZM25.0013 18.3333H28.3346V21.6667H25.0013V18.3333ZM25.0013 25H28.3346V28.3333H25.0013V25Z" fill="black"/>
<path d="M8.33333 36.6667H31.6667C33.505 36.6667 35 35.1717 35 33.3333V10C35 8.16168 33.505 6.66668 31.6667 6.66668H28.3333V3.33334H25V6.66668H15V3.33334H11.6667V6.66668H8.33333C6.495 6.66668 5 8.16168 5 10V33.3333C5 35.1717 6.495 36.6667 8.33333 36.6667ZM31.6667 13.3333L31.6683 33.3333H8.33333V13.3333H31.6667Z" fill="black"/>
</svg>
