<svg width="40" height="40" viewBox="0 0 40 40" fill="none" xmlns="http://www.w3.org/2000/svg">
<path d="M20 15C18.6766 15.0087 17.4099 15.5383 16.4741 16.4741C15.5383 17.4099 15.0087 18.6766 15 20C15 22.7367 17.2633 25 20 25C22.735 25 25 22.7367 25 20C25 17.265 22.735 15 20 15Z" fill="black"/>
<path d="M19.9989 8.33331C7.27719 8.33331 3.45385 19.3616 3.41885 19.4733L3.24219 20L3.41719 20.5266C3.45385 20.6383 7.27719 31.6666 19.9989 31.6666C32.7205 31.6666 36.5439 20.6383 36.5789 20.5266L36.7555 20L36.5805 19.4733C36.5439 19.3616 32.7205 8.33331 19.9989 8.33331ZM19.9989 28.3333C11.0805 28.3333 7.62552 21.9233 6.78885 20C7.62885 18.07 11.0855 11.6666 19.9989 11.6666C28.9172 11.6666 32.3722 18.0766 33.2089 20C32.3689 21.93 28.9122 28.3333 19.9989 28.3333Z" fill="black"/>
</svg>
