<svg viewBox="0 0 44 2" fill="#ffffff" xmlns="http://www.w3.org/2000/svg">
<path d="M36.1925 0.39866C36.1669 0.419875 35.8044 0.497667 35.7839 0.458772C35.7635 0.419878 35.9065 0.388054 35.8963 0.342087C35.8861 0.29612 35.6818 0.430485 35.6461 0.458772C35.6103 0.48706 35.5899 0.522417 35.6767 0.564848C35.7635 0.607279 35.4571 0.63203 35.3754 0.628494C35.3754 0.497666 35.3754 0.578991 35.2784 0.561311C35.1814 0.543632 35.2324 0.536561 35.2069 0.540097C35.1814 0.543633 34.972 0.557776 35.0486 0.61435C35.1252 0.670925 34.8239 0.706284 34.8648 0.61435C34.9056 0.522417 34.7218 0.575455 34.7371 0.61435C34.7524 0.653245 34.7371 0.642638 34.7371 0.653246C34.7371 0.663853 34.6043 0.586064 34.5073 0.603743C34.4314 0.608941 34.3581 0.625856 34.2928 0.653246C34.2928 0.653246 34.2673 0.653246 34.2571 0.653246C34.0835 0.586063 34.063 0.501202 34.0017 0.628494C33.9405 0.755787 33.9303 0.518883 33.8077 0.596672C33.7719 0.621424 33.7158 0.55424 33.6647 0.564848C33.6136 0.575456 33.5064 0.529489 33.5575 0.564848C33.6085 0.600207 33.6698 0.610816 33.5575 0.699214C33.4451 0.787612 33.4094 0.727501 33.4145 0.699214C33.4145 0.497668 33.4451 0.653247 33.2256 0.699214C33.1745 0.699214 33.149 0.557778 33.1285 0.522419C33.1081 0.48706 33.0826 0.522419 33.0417 0.522419C33.0009 0.522419 32.8068 0.444628 32.7098 0.465843C32.6804 0.471262 32.6496 0.47217 32.6196 0.468506C32.5896 0.464842 32.5611 0.456694 32.5362 0.444629C32.4899 0.527324 32.4353 0.607669 32.3727 0.68507C32.2706 0.706285 32.0664 0.716893 32.0051 0.660319C31.9438 0.603744 31.6936 0.582527 31.6987 0.624958C31.7038 0.667388 31.7293 0.748717 31.6323 0.723965C31.5353 0.699214 31.5761 0.635566 31.5097 0.667389C31.4433 0.699213 31.4638 0.667389 31.4382 0.667389C31.2748 0.561312 31.285 0.787611 31.1472 0.635568C31.1381 0.624592 31.1259 0.614976 31.1114 0.60728C31.1114 0.663854 31.1114 0.720429 31.0246 0.734573C30.9378 0.748716 30.9531 0.674461 30.8459 0.642638C30.7386 0.610815 30.8459 0.571921 30.7999 0.54717C30.6978 0.46938 30.6825 0.373909 30.5803 0.426948C30.6212 0.472915 30.708 0.515346 30.7029 0.557777C30.6978 0.600208 30.7029 0.642637 30.6672 0.649709C30.4935 0.702747 30.5446 0.769931 30.325 0.755787C30.3079 0.755655 30.2911 0.752698 30.276 0.747163C30.2609 0.741627 30.248 0.733675 30.2382 0.723965C30.1922 0.639104 30.1207 0.596672 30.2024 0.533026C30.2024 0.479988 30.2637 0.451698 30.2995 0.409267C30.3352 0.366836 30.1514 0.359765 30.1667 0.409267C30.2076 0.501201 30.0544 0.554241 30.0697 0.593136C30.0757 0.616465 30.0737 0.640444 30.064 0.663159C30.0542 0.685875 30.0369 0.706698 30.0135 0.723965C29.9778 0.752252 29.896 0.695677 29.845 0.670926C29.7939 0.646175 29.7224 0.670926 29.7071 0.670926C29.6826 0.662238 29.6555 0.657705 29.628 0.657705C29.6004 0.657705 29.5733 0.662238 29.5488 0.670926C29.4875 0.688606 29.4518 0.670925 29.4824 0.639102C29.5131 0.607278 29.4824 0.529489 29.4824 0.490594C29.4674 0.490641 29.4526 0.488515 29.4389 0.484349C29.4252 0.480183 29.4128 0.474072 29.4027 0.46641C29.3926 0.458747 29.385 0.449703 29.3802 0.439862C29.3755 0.43002 29.3738 0.419596 29.3752 0.409267C29.3752 0.359765 29.1811 0.349159 29.125 0.356231C28.9871 0.356231 29.3701 0.578993 29.268 0.522419C29.3292 0.557778 29.4467 0.568384 29.4007 0.603743C29.3548 0.639102 29.3343 0.603743 29.222 0.653246C29.1096 0.702748 29.1096 0.632031 29.0126 0.632031C28.9156 0.632031 28.936 0.670926 28.8543 0.709821C28.7726 0.748716 28.7573 0.677996 28.6807 0.663853C28.6041 0.649709 28.6449 0.635567 28.6398 0.60728C28.5713 0.590627 28.5061 0.568054 28.4458 0.540097C28.4458 0.564848 28.4458 0.586065 28.4815 0.596672C28.6347 0.653247 28.4305 0.702749 28.2466 0.621424C28.2211 0.621424 28.2466 0.561313 28.3232 0.568385C28.3998 0.575456 28.3641 0.52949 28.3232 0.504738C28.2824 0.479987 28.216 0.458772 28.2926 0.391589C28.3692 0.324407 27.9198 0.299655 27.9556 0.412804C27.9913 0.525953 27.9555 0.458772 27.8687 0.543633C28.0781 0.596672 28.0577 0.656781 27.9811 0.649709C27.8126 0.628493 28.0117 0.617887 27.7666 0.603743C27.6747 0.603743 27.6543 0.670926 27.5879 0.646175C27.5215 0.621424 27.4449 0.646175 27.45 0.571921C27.4551 0.497667 27.45 0.571919 27.4245 0.550704C27.4151 0.544094 27.4099 0.535208 27.4099 0.525953C27.4099 0.516697 27.4151 0.507811 27.4245 0.501202C27.4653 0.462307 27.4245 0.377447 27.2662 0.345624C27.21 0.345624 27.1334 0.373909 27.0568 0.39866C26.9802 0.423411 26.9598 0.39866 26.9189 0.39866C26.8781 0.39866 26.8168 0.324408 26.7453 0.370375C26.6738 0.416342 26.5359 0.335014 26.3827 0.39866C26.3617 0.404886 26.3392 0.408097 26.3163 0.408097C26.2935 0.408097 26.2709 0.404886 26.25 0.39866C26.158 0.363301 26.1478 0.398662 26.061 0.419877C25.9742 0.441093 26.0151 0.419875 26.0099 0.39866C26.0048 0.377445 26.0099 0.320871 25.9027 0.33855C25.7955 0.35623 25.7444 0.338552 25.6831 0.395126C25.6218 0.451701 25.6014 0.448164 25.5606 0.430485C25.4717 0.409544 25.3814 0.39184 25.2899 0.377445C25.2235 0.377445 25.2542 0.472916 25.198 0.444629C25.1418 0.416341 25.1674 0.405734 25.1316 0.395126C25.1001 0.385887 25.0662 0.381125 25.032 0.381125C24.9978 0.381125 24.964 0.385887 24.9324 0.395126C24.7133 0.435793 24.4826 0.435793 24.2635 0.395126C24.2039 0.381116 24.1393 0.381116 24.0797 0.395126C24.0184 0.395126 24.0337 0.437555 24.0439 0.47645C24.0541 0.515345 24.0439 0.497665 24.0439 0.497665C23.9418 0.497665 23.7835 0.589599 23.7426 0.525953C23.6456 0.359765 23.3698 0.352694 23.1196 0.412804C22.992 0.441091 22.9817 0.412803 22.8847 0.384516C22.8847 0.384516 22.5988 0.384516 22.3741 0.384516C22.2735 0.366855 22.1682 0.366855 22.0677 0.384516C22.0013 0.384516 21.9706 0.342085 21.9145 0.384516C21.8343 0.419687 21.7434 0.441476 21.6489 0.448162C21.5876 0.426947 21.5264 0.448162 21.4651 0.448162C21.4038 0.448162 19.7595 0.359765 19.7595 0.359765C19.7595 0.359765 20.0352 0.320872 20.1221 0.33148C20.5204 0.380982 20.2242 0.33148 20.5051 0.33148C20.6741 0.350933 20.8466 0.350933 21.0157 0.33148C21.077 0.33148 21.0157 0.33148 20.9698 0.292585C20.9238 0.25369 21.2302 0.292585 21.2761 0.292585C21.2418 0.272905 21.1981 0.262815 21.1536 0.264297C20.9902 0.264297 20.9187 0.182971 20.8165 0.264297C20.6276 0.21833 20.4795 0.161756 20.3365 0.239546C20.2906 0.271369 20.1935 0.239544 20.1323 0.207721C20.071 0.175898 20.0097 0.26076 19.9025 0.207721C19.5093 0.0698207 19.3918 0.190043 19.0139 0.165292C18.9505 0.172232 18.8905 0.189683 18.8389 0.216157C18.7873 0.24263 18.7458 0.277342 18.7177 0.317336C18.7177 0.448164 18.3705 0.419876 18.4879 0.352694C18.6054 0.285512 18.6207 0.310264 18.6462 0.253689C18.6718 0.197115 18.5901 0.204187 18.5543 0.190043C18.3194 0.101645 18.013 0.151149 18.0437 0.370375C18.0743 0.589601 17.39 0.536561 17.676 0.465843C17.773 0.441092 17.5841 0.41634 17.4871 0.39866C17.6096 0.352693 17.6913 0.39866 17.7475 0.285511C17.7475 0.257224 17.773 0.232473 17.7475 0.225402C17.5636 0.197114 17.2062 0.161755 17.1653 0.289048C17.1653 0.317335 17.1653 0.352694 17.1041 0.352694C16.7772 0.352694 16.9866 0.352694 16.6343 0.352694C16.5525 0.352694 16.716 0.409269 16.6598 0.441092C16.6036 0.472915 16.5423 0.409269 16.43 0.441092C16.3176 0.472915 16.2513 0.44109 16.2564 0.409267C16.2615 0.377444 16.384 0.409269 16.4198 0.380982C16.336 0.356841 16.2487 0.339057 16.1593 0.327943C15.9961 0.331891 15.8341 0.306299 15.6895 0.253689C15.6204 0.212456 15.5366 0.184805 15.4467 0.173611C15.3569 0.162418 15.2644 0.168092 15.1789 0.190043C14.9235 0.289048 14.9184 0.0486069 14.5865 0.190043C14.4793 0.228938 14.4333 0.370373 14.4946 0.373909C14.5559 0.377445 14.8776 0.41634 14.9746 0.373909C15.1584 0.285511 15.2299 0.483523 14.8572 0.430485C14.7713 0.418092 14.6826 0.418092 14.5967 0.430485C14.5303 0.430485 14.6529 0.479986 14.5712 0.47645C14.4787 0.462359 14.3828 0.462359 14.2903 0.47645C14.2803 0.482198 14.2676 0.485342 14.2546 0.485342C14.2415 0.485342 14.2289 0.482198 14.2188 0.47645C14.1678 0.39866 13.7082 0.444628 13.8103 0.377445C14.321 0.0768937 12.6664 0.101645 13.4477 0.377445C13.4554 0.382091 13.4614 0.387805 13.4656 0.394206C13.4698 0.400607 13.4719 0.40755 13.4719 0.414574C13.4719 0.421597 13.4698 0.428537 13.4656 0.434938C13.4614 0.44134 13.4554 0.447054 13.4477 0.451699C13.2639 0.540097 13.1158 0.451699 12.9933 0.501202C12.9801 0.504752 12.9655 0.504752 12.9524 0.501202C12.8707 0.462307 12.6409 0.46938 12.6052 0.430485C12.5694 0.39159 12.5286 0.39866 12.4826 0.39866C12.4366 0.39866 12.4111 0.451698 12.406 0.497665C12.4009 0.543632 12.3549 0.497666 12.2937 0.525953C12.1987 0.552683 12.0924 0.552683 11.9975 0.525953L12.0383 0.494131C11.9362 0.426949 11.8136 0.455236 11.7166 0.416341C11.7472 0.416341 11.8596 0.416341 11.88 0.416341C11.7473 0.324407 10.9813 0.416341 10.7821 0.380982C10.7821 0.356231 10.8383 0.352694 10.8587 0.33855C11.0272 0.21833 9.95995 0.175899 9.73015 0.211258C9.66377 0.211258 9.60249 0.27844 9.65356 0.299655C9.68411 0.309432 9.71318 0.321275 9.74036 0.335014C9.5703 0.342314 9.39976 0.342314 9.2297 0.335014C9.1825 0.341891 9.13368 0.341333 9.08683 0.333376C9.03998 0.325419 8.9963 0.310269 8.95905 0.289048C8.85325 0.240831 8.73312 0.209751 8.60757 0.19812C8.48203 0.186489 8.35432 0.194604 8.23393 0.221865C8.19719 0.233841 8.15708 0.24005 8.11647 0.24005C8.07586 0.24005 8.03575 0.233841 7.99901 0.221865C7.64666 0.133467 7.42709 0.221866 7.10027 0.20065C6.41122 0.243227 5.71683 0.190337 5.05763 0.0450697C4.41911 0.00776504 3.77821 -0.00639618 3.13755 0.00264062C2.68817 0.00264062 1.67707 0.00264052 1.29918 0.204187C1.03364 0.338551 0.951935 0.306728 0.665967 0.391589C0.379998 0.476451 0.512768 0.745179 0.696605 0.815897C0.880442 0.886615 0.74257 0.904295 0.814062 0.957333C0.885554 1.01037 0.814049 1.11645 0.99278 1.23313C1.04766 1.27871 1.1164 1.31534 1.19408 1.3404C1.27176 1.36546 1.35646 1.37833 1.44216 1.37811C1.52897 1.37811 1.54941 1.33568 1.58005 1.37811C1.61069 1.42054 1.72814 1.44175 1.7026 1.49479C1.67707 1.54783 1.80984 1.55844 1.88134 1.63976C1.95283 1.72109 2.30006 1.67866 2.54007 1.6928C3.14048 1.66852 3.74258 1.71271 4.32228 1.82363C4.44667 1.84835 4.57598 1.85909 4.70528 1.85545C4.82783 1.8307 4.99124 1.85545 5.06784 1.82363C5.14444 1.79181 8.81607 1.99335 9.10715 1.92971C9.91399 1.95446 13.2894 2.07468 14.035 1.92971C14.5776 1.86403 15.1247 1.818 15.6742 1.79181C20.1323 1.71048 19.974 1.63623 19.974 1.63623C20.5357 1.66805 21.2302 1.58672 21.5672 1.60087C21.7235 1.61131 21.8808 1.61131 22.037 1.60087C22.1526 1.59559 22.2686 1.59559 22.3843 1.60087C22.609 1.60087 22.5885 1.55137 22.8337 1.60087C23.0707 1.6414 23.3163 1.65218 23.5588 1.63269C23.6741 1.62579 23.7902 1.63419 23.9009 1.65744C24.2793 1.62772 24.6613 1.62772 25.0397 1.65744C25.6116 1.61501 26.5257 1.77413 26.5717 1.54076C26.6023 1.54076 26.6636 1.6433 26.6687 1.65744C26.73 1.77766 26.9189 1.70341 27.0823 1.65744C27.1385 1.65744 27.2253 1.62562 27.2508 1.65744C27.2764 1.68927 27.3172 1.78827 27.4551 1.75645C27.593 1.72463 27.6645 1.67159 27.7258 1.71402C27.787 1.75645 27.8687 1.76705 27.9607 1.73523C28.0526 1.70341 28.2415 1.67158 28.2977 1.73523C28.3539 1.79888 28.3488 1.83777 28.4815 1.81656C28.6143 1.79534 28.5632 1.7812 28.6603 1.75645C28.7573 1.7317 28.7317 1.75645 28.839 1.75645C28.9462 1.75645 29.0841 1.65744 29.125 1.75645C29.1396 1.77635 29.1609 1.79356 29.1871 1.80667C29.2132 1.81978 29.2434 1.82841 29.2753 1.83186C29.3072 1.83531 29.3398 1.83348 29.3705 1.82652C29.4012 1.81956 29.429 1.80766 29.4518 1.79181C29.5246 1.75515 29.6074 1.72906 29.6951 1.71508C29.7829 1.70111 29.8738 1.69954 29.9624 1.71048C30.0647 1.70351 30.1657 1.6893 30.2637 1.66805C30.3146 1.65407 30.3712 1.65407 30.422 1.66805C30.4833 1.68573 30.422 1.76352 30.5344 1.75645C31.045 1.72463 30.6671 1.61501 31.2187 1.68573C31.3208 1.68573 31.3106 1.77413 31.377 1.7812C31.6272 1.7812 31.8417 1.66805 32.0051 1.75999C32.0865 1.79398 32.1767 1.81679 32.2706 1.82717C32.3727 1.84838 32.8119 1.77413 32.8119 1.82717C32.8119 1.8802 33.0723 1.86252 33.1387 1.82717C33.1081 1.82717 33.0009 1.82717 32.9447 1.78827C33.1308 1.75698 33.3204 1.73687 33.5115 1.72816C33.5728 1.72816 33.6085 1.78473 33.5473 1.80241C33.4595 1.80505 33.3723 1.81334 33.2868 1.82717C33.3583 1.90496 33.6596 1.78473 33.7005 1.89081C33.7005 1.94031 33.8639 1.94385 33.9456 1.97567C34.0273 2.0075 34.3796 1.94031 34.5584 1.90496C35.069 1.69987 36.3406 1.81656 36.601 1.75999C36.6929 1.75999 37.1117 1.7317 37.1729 1.7317C37.2342 1.7317 37.2649 1.63269 37.3721 1.66805C37.4793 1.70341 37.3312 1.72462 37.3721 1.73877C37.4129 1.75291 37.4181 1.67159 37.5151 1.73877C37.6121 1.80595 37.5917 1.73877 37.5815 1.71402C37.5713 1.68927 37.6325 1.54429 37.7091 1.61148C37.7857 1.67866 37.7602 1.65037 37.7449 1.67512C37.7295 1.69987 37.9185 1.7317 37.9542 1.69987C38.1228 1.5549 37.9951 1.61501 38.0411 1.47004C38.1023 1.47004 38.1279 1.73523 38.1738 1.70341C38.2198 1.67159 38.2096 1.7317 38.2913 1.63623C38.2682 1.5688 38.2682 1.49858 38.2913 1.43115C38.3883 1.47004 38.3424 1.53722 38.4445 1.60087C38.5466 1.66451 38.5517 1.60087 38.5415 1.60087C38.5313 1.60087 38.7866 1.37457 38.71 1.53015C38.71 1.53015 38.6641 1.5938 38.6845 1.60794C38.853 1.73877 38.9041 1.69634 38.8785 1.53015C38.8785 1.43822 39.0726 1.43468 38.9909 1.53015C38.9449 1.58673 39.0164 1.6433 39.0573 1.63269C39.0981 1.62208 39.1185 1.63269 39.1492 1.63269C39.2587 1.71712 39.3927 1.78459 39.5424 1.8307C39.6445 1.86606 39.6854 1.80595 39.8028 1.8307C39.834 1.83918 39.8687 1.83918 39.8998 1.8307C40.0449 1.77872 40.1951 1.73383 40.3492 1.69634C40.3748 1.69634 40.4003 1.67512 40.3901 1.65391C40.3799 1.63269 40.3901 1.63269 40.3901 1.63269C40.3901 1.63269 40.5075 1.63269 40.5637 1.57612C40.6199 1.51954 40.5943 1.57612 40.7475 1.54429C40.7656 1.53937 40.7857 1.53937 40.8037 1.54429C40.8599 1.56905 40.8854 1.54429 40.9416 1.54429C40.9927 1.61148 40.9927 1.59733 41.0999 1.58672C41.2071 1.57612 41.1612 1.58672 41.2327 1.61501C41.3042 1.6433 41.7433 1.66805 41.7025 1.61501C41.6616 1.56197 41.6463 1.56197 41.6769 1.53722C41.7519 1.4624 41.8201 1.38446 41.8812 1.30385C41.9221 1.28264 41.9425 1.24728 41.8812 1.17656C41.8199 1.10584 41.9527 1.0917 41.8812 0.999765C41.8566 0.977639 41.8456 0.949687 41.8506 0.921975C41.9118 0.921975 41.9323 0.886616 41.9987 0.921975C42.065 0.957334 42.0395 0.713356 42.0497 0.642638C42.0599 0.57192 41.9782 0.575456 41.9425 0.564848C41.9067 0.55424 41.774 0.69214 41.8965 0.688604C41.8965 0.688604 41.9323 0.688604 41.9527 0.688604C42.0548 0.75225 41.8812 0.731036 41.9527 0.794682C41.9527 0.794682 41.9527 0.822969 41.9527 0.830041C41.9527 0.837112 41.6974 0.755788 41.7025 0.720429C41.7382 0.423413 41.7025 0.649711 41.5442 0.596672C41.4931 0.575457 41.4369 0.617886 41.4523 0.624958C41.5748 0.695676 41.728 0.7275 41.585 0.80529C41.5544 0.78761 41.5186 0.762859 41.4829 0.769931C41.4471 0.777003 41.3654 0.812362 41.3348 0.769931C41.3042 0.7275 41.2173 0.734572 41.0948 0.769931C41.1224 0.791026 41.1564 0.807661 41.1944 0.818659C41.2323 0.829657 41.2733 0.83475 41.3144 0.833577C41.391 0.833577 41.1459 0.946727 41.1612 0.872473C41.1765 0.798219 40.9722 0.872473 41.0335 0.964407C41.0948 1.05634 41.0335 1.01745 40.9773 1.0528C40.9212 1.08816 41.0131 1.10584 41.0437 1.12706C41.0744 1.14827 41.0131 1.19778 40.9058 1.14827C40.8987 1.09708 40.9128 1.04554 40.9467 0.999765C40.9927 0.932583 40.9467 0.918439 40.865 0.872473C40.7833 0.826506 40.865 0.784075 40.819 0.769931C40.7731 0.755787 40.7424 0.723964 40.6965 0.667389C40.6505 0.610815 40.7475 0.589599 40.6965 0.564848C40.145 0.310263 40.2828 0.462306 40.0684 0.497665C40.0524 0.501332 40.0377 0.507336 40.0254 0.515267C40.0131 0.523198 40.0033 0.532872 39.9969 0.543633C39.9113 0.529506 39.8221 0.529506 39.7365 0.543633C39.6752 0.543633 39.665 0.479988 39.6241 0.508275C39.5833 0.536562 39.6241 0.547169 39.5935 0.593136C39.5628 0.639103 39.5935 0.653247 39.6241 0.695677C39.573 0.720429 39.4198 0.801755 39.4045 0.759324C39.3892 0.716893 39.5628 0.621422 39.5169 0.575455C39.4709 0.529489 39.3943 0.525953 39.3483 0.550704C39.3024 0.575455 39.2564 0.550704 39.1594 0.550704C39.1485 0.556729 39.135 0.560014 39.1211 0.560014C39.1072 0.560014 39.0937 0.556729 39.0828 0.550704C38.9654 0.465842 38.8122 0.550704 38.6794 0.47645C38.5466 0.402196 38.2964 0.476452 38.1023 0.33148C38.0366 0.307847 37.9683 0.287749 37.8981 0.271367C37.8725 0.271367 37.8164 0.313799 37.8419 0.363302C37.8674 0.412804 37.8725 0.543632 37.7806 0.501202C37.6887 0.458771 37.7091 0.501202 37.6223 0.47645C37.5355 0.451699 37.5559 0.444629 37.51 0.444629C37.464 0.444629 37.4793 0.472914 37.51 0.511809C37.5406 0.550704 37.4283 0.578991 37.4027 0.511809C37.3619 0.384516 37.2955 0.5896 37.1576 0.479987C37.1219 0.479987 36.9789 0.479988 36.9636 0.444629C36.9482 0.40927 36.744 0.331478 36.6623 0.388053C36.5806 0.444627 36.4376 0.313799 36.3865 0.388053C36.3354 0.462307 36.2742 0.402196 36.1925 0.39866ZM41.8812 0.925512C41.8812 0.925512 41.8863 0.932583 41.8812 0.925512V0.925512ZM41.7995 1.23313C41.7484 1.24374 41.7535 1.21192 41.7995 1.23313V1.23313ZM41.2888 1.03159V1.0033C41.2888 1.0033 41.3195 1.02452 41.2888 1.03159ZM41.3757 1.38518C41.3757 1.44175 41.2735 1.43114 41.3093 1.38518C41.345 1.33921 41.3552 1.37104 41.3757 1.39225V1.38518ZM41.5493 0.88308C41.6003 0.88308 41.6054 0.90783 41.6054 0.939653C41.5901 1.05987 41.4063 0.893686 41.5646 0.89015L41.5493 0.88308ZM41.3757 1.31092C41.3501 1.31092 41.4012 1.27556 41.4267 1.26142C41.4523 1.24728 41.4267 1.21546 41.3654 1.1907C41.3042 1.16595 41.442 1.1907 41.442 1.11998C41.442 1.04927 41.5135 1.11998 41.5391 1.11998C41.5646 1.11998 41.5391 1.18717 41.5391 1.24728C41.5416 1.26255 41.5416 1.27797 41.5391 1.29324L41.5135 1.3286C41.5084 1.37104 41.4165 1.34275 41.3757 1.318V1.31092ZM41.3757 1.51247C41.3195 1.54076 41.2531 1.58319 41.2225 1.55137C41.1918 1.51954 41.3144 1.48065 41.3859 1.51954L41.3757 1.51247ZM41.0284 1.51247C41.0284 1.44882 41.0693 1.48772 41.0284 1.51247V1.51247ZM41.0284 1.27203C41.0591 1.21192 41.0284 1.21192 41.1254 1.20485C41.2225 1.19777 41.1969 1.15181 41.2225 1.16595C41.248 1.1801 41.2531 1.25435 41.2225 1.28264C41.1918 1.31092 41.2939 1.34275 41.2225 1.38871C41.151 1.43468 41.151 1.44883 41.1101 1.417C41.0631 1.3845 41.0327 1.34231 41.0233 1.29678L41.0284 1.27203ZM40.9671 1.1412C40.8854 1.20131 40.8752 1.09524 40.9365 1.1412H40.9671ZM40.8139 1.2296C40.8599 1.19778 40.9007 1.19424 40.9416 1.2296C40.9824 1.26496 40.9875 1.26849 40.9824 1.28971C40.9773 1.31092 40.9518 1.31092 40.9161 1.28971C40.8793 1.27954 40.8434 1.26773 40.8088 1.25435L40.8139 1.2296ZM40.7322 1.34275C40.7986 1.318 40.7986 1.37457 40.8088 1.42407C40.8088 1.44529 40.8088 1.44882 40.8088 1.42407C40.8088 1.39932 40.6709 1.38871 40.7271 1.3675L40.7322 1.34275ZM40.7322 1.12706C40.7266 1.13054 40.7193 1.13246 40.7118 1.13246C40.7043 1.13246 40.697 1.13054 40.6914 1.12706C40.6607 1.14827 40.7067 1.08463 40.7424 1.15181L40.7322 1.12706ZM40.0633 0.550704C40.0633 0.550704 40.0684 0.568383 40.0735 0.575455L40.0633 0.550704ZM40.0326 0.731036C40.0326 0.706285 40.0735 0.642638 40.099 0.653246C40.1245 0.663853 40.1705 0.780539 40.1348 0.769931L40.0326 0.731036ZM39.3126 0.731036C39.3126 0.755787 39.3126 0.755787 39.282 0.731036C39.2513 0.706285 39.2258 0.674461 39.2871 0.702748L39.3126 0.731036ZM38.8683 1.15534V1.18009C38.8275 1.21192 38.7458 1.18717 38.8428 1.12706L38.8683 1.15534ZM38.327 1.4665C38.327 1.4665 38.3066 1.43822 38.3015 1.43822L38.327 1.4665ZM38.327 1.28971C38.3985 1.25789 38.373 1.26496 38.327 1.21899C38.4343 1.17302 38.5006 1.28971 38.4649 1.31092L38.3883 1.35689C38.3611 1.34819 38.3375 1.33488 38.3196 1.3182C38.3018 1.30151 38.2903 1.28199 38.2862 1.26142L38.327 1.28971ZM38.6028 1.02098C38.6028 1.02098 38.5517 1.05634 38.5466 1.05988C38.5415 1.06341 38.5824 1.13059 38.5926 1.14827C38.6334 1.22253 38.4904 1.25435 38.4853 1.14827C38.4853 1.11291 38.4853 1.08109 38.4496 1.08816C38.3945 1.08678 38.3419 1.07172 38.3015 1.04573C38.1432 0.975013 38.5262 0.953797 38.5619 0.992692L38.6028 1.02098ZM38.0921 1.5054C38.0921 1.5054 38.0513 1.48418 38.0513 1.47711L38.0921 1.5054ZM38.0921 1.01744C38.2147 0.996228 38.184 1.05634 38.0921 1.07048C38.0002 1.08463 38.0155 1.07048 37.9747 1.04573C37.9338 1.02098 37.9134 0.907832 38.0359 0.989158L38.0921 1.01744ZM37.3619 0.593136C37.3619 0.593136 37.4129 0.593136 37.4334 0.593136C37.4538 0.593136 37.2904 0.575456 37.3057 0.564848L37.3619 0.593136ZM37.2087 1.7317C37.2087 1.7317 37.2087 1.7317 37.1678 1.7317H37.1321C37.0453 1.68573 37.127 1.67159 37.1525 1.70341L37.2087 1.7317ZM36.6265 0.518882C36.698 0.465844 36.7695 0.518882 36.6572 0.518882H36.6265ZM5.86958 1.63623C6.00235 1.66451 5.86957 1.72463 5.80319 1.65744C5.7368 1.59026 5.81851 1.63976 5.86958 1.63623ZM4.99124 1.69634C4.99124 1.69634 4.99635 1.69987 4.99124 1.69634V1.69634ZM4.28653 1.5938C4.53046 1.60032 4.77152 1.63251 5.00145 1.68927C4.87379 1.68927 4.16398 1.61148 4.28653 1.5938ZM3.4848 1.52308C3.6323 1.52002 3.77981 1.52952 3.92397 1.55137C3.76966 1.55538 3.61525 1.54587 3.46438 1.52308H3.4848ZM3.03541 1.52308C3.07627 1.52308 3.09159 1.52308 3.07628 1.52308C3.10977 1.51709 3.1449 1.51709 3.1784 1.52308C3.1528 1.53131 3.12493 1.53557 3.09671 1.53557C3.06848 1.53557 3.0406 1.53131 3.015 1.52308H3.03541ZM2.80563 1.52308C2.80563 1.52308 2.80562 1.52308 2.73924 1.52308C2.67285 1.52308 2.72392 1.5054 2.7852 1.53368L2.80563 1.52308ZM5.35892 0.617887C5.43552 0.617887 5.4968 0.681532 5.35892 0.67446C3.88312 0.575455 2.48902 0.412804 2.48902 0.412804C2.34093 0.430484 1.51876 0.444629 1.59026 0.356231C1.66175 0.267833 1.85069 0.356231 1.9375 0.356231C2.34821 0.398062 2.76346 0.414628 3.1784 0.405733C3.26521 0.412805 4.79718 0.586064 5.3487 0.628494L5.35892 0.617887ZM5.68064 0.423411C4.90915 0.410581 4.13975 0.362151 3.37756 0.278441C3.56651 0.23601 5.58871 0.299657 5.67041 0.434021L5.68064 0.423411ZM5.94106 0.525953C5.90021 0.462307 5.97681 0.40927 6.02277 0.419877C6.06873 0.430485 6.01256 0.550704 5.93085 0.53656L5.94106 0.525953ZM6.07384 0.826504C5.90021 0.872471 5.56318 0.826505 5.59382 0.702748C5.62446 0.578991 5.53764 0.575456 5.38445 0.515346C5.59382 0.451699 5.60915 0.635567 5.77766 0.734573C5.84405 0.794683 6.00746 0.769932 6.06363 0.837114L6.07384 0.826504ZM6.26278 1.66098C6.18107 1.66098 6.00746 1.71402 6.04831 1.66098C6.08916 1.60794 6.1964 1.65391 6.25257 1.67159L6.26278 1.66098ZM7.11558 1.71755C6.87192 1.72053 6.62858 1.70391 6.39044 1.66805C6.63039 1.67728 6.8692 1.69736 7.10536 1.72816L7.11558 1.71755ZM10.6902 1.77413C10.6171 1.79013 10.5386 1.79013 10.4655 1.77413C10.5396 1.76451 10.6162 1.77068 10.6851 1.79181L10.6902 1.77413ZM11.3081 1.77413C11.1365 1.78077 10.9645 1.77005 10.7974 1.7423C10.9684 1.74285 11.1385 1.7595 11.303 1.79181L11.3081 1.77413ZM11.7064 1.77413C11.7064 1.80241 11.4562 1.77413 11.4102 1.77413C11.5076 1.77662 11.6048 1.78252 11.7013 1.79181L11.7064 1.77413ZM11.7064 1.77413C11.737 1.74937 13.2997 1.82717 13.315 1.83424C13.4784 1.92264 11.9056 1.79181 11.7166 1.79181L11.7064 1.77413ZM13.989 0.426948C14.0143 0.423327 14.0404 0.423327 14.0656 0.426948C14.1576 0.451699 14.0146 0.448163 13.989 0.426948ZM15.904 0.405733C15.8632 0.405733 15.7763 0.352694 15.807 0.327943C15.8376 0.303192 16.0215 0.327943 16.0776 0.327943C16.1338 0.327943 15.9755 0.434021 15.8989 0.405733H15.904ZM16.7926 0.380982C16.7926 0.380982 16.7926 0.380982 16.7619 0.352694C16.7313 0.324407 16.8232 0.35623 16.7875 0.377445L16.7926 0.380982ZM16.9611 0.423411C16.813 0.352693 17.0428 0.303191 17.15 0.349158C17.2573 0.395124 16.9866 0.444627 16.956 0.423411H16.9611ZM19.2948 0.313799C19.2948 0.313799 19.2948 0.313799 19.2437 0.313799C19.2846 0.303191 19.2744 0.306727 19.2897 0.313799H19.2948ZM20.8574 0.204187C20.8932 0.204187 20.888 0.204187 20.9085 0.204187C20.9289 0.204187 20.8676 0.225402 20.8523 0.204187H20.8574ZM25.8567 0.624958C25.8567 0.624958 25.8567 0.62496 25.7904 0.660319C25.7342 0.614352 25.7853 0.607278 25.8516 0.624958H25.8567ZM26.2448 0.624958C26.2415 0.633818 26.2351 0.641987 26.2262 0.648762C26.2173 0.655537 26.2062 0.660715 26.1938 0.663853C25.9333 0.695676 25.9997 0.575457 25.8976 0.557777C25.7955 0.540098 25.8619 0.469378 25.8976 0.487058C25.9645 0.509517 26.0377 0.521587 26.1121 0.522419C26.204 0.522419 26.2397 0.426949 26.2959 0.455236C26.3521 0.483523 26.2448 0.525954 26.2448 0.621424V0.624958ZM27.1232 0.511809H27.0006C26.7913 0.455234 26.873 0.465843 27.0006 0.412804C27.1283 0.359765 27.1947 0.497667 27.1181 0.508275L27.1232 0.511809ZM28.1751 0.391589C28.1751 0.391589 28.1751 0.366838 28.2058 0.391589C28.2364 0.416341 28.1802 0.377445 28.17 0.377445L28.1751 0.391589ZM33.7209 0.663853C33.6749 0.663853 33.7515 0.635566 33.7771 0.663853C33.8026 0.69214 33.7566 0.674462 33.7158 0.660319L33.7209 0.663853ZM34.5635 0.663853C34.5635 0.663853 34.5635 0.688605 34.5328 0.692141C34.5234 0.691092 34.5145 0.688213 34.5073 0.683835C34.5 0.679457 34.4947 0.673757 34.492 0.667389C34.492 0.667389 34.492 0.667389 34.5277 0.667389C34.5635 0.667389 34.5482 0.667388 34.5584 0.67446L34.5635 0.663853ZM35.0741 1.79181C35.0741 1.79181 35.0894 1.79181 35.0486 1.79181H35.0741ZM35.3959 0.621424C35.3397 0.66739 35.2886 0.699213 35.2273 0.642638C35.166 0.586064 35.2733 0.571919 35.3192 0.586062L35.3959 0.621424ZM35.3295 1.79181C35.2752 1.80624 35.2152 1.80624 35.1609 1.79181C35.2477 1.74938 35.4367 1.79181 35.3295 1.79181ZM36.1925 0.525953C36.1363 0.578991 36.1159 0.525953 36.1567 0.525953C36.1619 0.523363 36.1682 0.521971 36.1746 0.521971C36.181 0.521971 36.1873 0.523363 36.1925 0.525953ZM36.3661 0.525953C36.3661 0.525953 36.3252 0.525953 36.3201 0.525953C36.315 0.525953 36.3406 0.501203 36.3661 0.508275V0.525953ZM42.494 1.02805C42.494 0.992691 42.6268 0.787609 42.6625 0.851255C42.6983 0.914902 42.6625 0.890151 42.6625 0.904294C42.6625 0.918438 42.6983 0.904296 42.7136 0.925512C42.7289 0.946727 42.7697 0.975013 42.8055 0.996229C42.8412 1.01744 42.734 1.06695 42.7136 1.03866L42.6421 0.953797C42.591 0.897222 42.5808 1.13059 42.5961 1.17656C42.6114 1.22253 42.4889 1.20485 42.4838 1.15181C42.448 1.02452 42.4736 1.08463 42.4838 1.01037L42.494 1.02805ZM43.0047 1.65037C42.9434 1.65037 42.9434 1.62916 42.9076 1.59026C42.8719 1.55137 42.7953 1.59026 42.7136 1.59026C42.6319 1.59026 42.7136 1.44175 42.7749 1.4665C42.9995 1.56551 42.7749 1.4665 43.0302 1.4665C43.0534 1.46726 43.0754 1.47374 43.0922 1.48477C43.1091 1.4958 43.1197 1.51064 43.1221 1.52661C43.0506 1.52661 43.0557 1.48772 42.9842 1.5054C42.9842 1.55137 43.0506 1.63269 42.9791 1.63269L43.0047 1.65037ZM43.0353 0.967941C43.1017 0.967941 43.1732 1.01391 43.1374 1.04927C43.1017 1.08463 42.9893 0.999764 42.923 0.967941C42.9226 0.954265 42.9178 0.940821 42.909 0.928587C42.9001 0.916353 42.8875 0.905639 42.8719 0.897224C42.7391 0.840649 42.8208 0.639102 43.0353 0.780538C43.0353 0.780538 42.8923 0.70982 42.8821 0.780538C42.8785 0.789607 42.8791 0.799214 42.8836 0.808065C42.8882 0.816917 42.8966 0.824587 42.9076 0.830041C42.9638 0.872472 42.9229 0.950263 43.0098 0.950263L43.0353 0.967941ZM42.3817 0.656782C42.351 0.656782 42.3408 0.695678 42.3204 0.709821C42.3 0.723965 42.2642 0.617886 42.3204 0.61435C42.3662 0.610759 42.4124 0.610759 42.4583 0.61435C42.591 0.61435 42.4583 0.66739 42.5298 0.706285C42.6012 0.74518 42.4787 0.861863 42.4174 0.826504C42.3561 0.791145 42.3919 0.801753 42.4174 0.791146C42.4429 0.780538 42.4174 0.692141 42.4174 0.667389C42.4162 0.662702 42.4136 0.658232 42.4098 0.654249C42.4061 0.650266 42.4012 0.64685 42.3955 0.644208C42.3897 0.641567 42.3833 0.639752 42.3765 0.638875C42.3698 0.637998 42.3628 0.638074 42.3561 0.639102L42.3817 0.656782ZM28.5224 0.377445C28.5224 0.349158 28.5786 0.303192 28.6552 0.327943C28.7318 0.352694 28.7522 0.359766 28.742 0.377445C28.712 0.422974 28.6963 0.472388 28.696 0.522419C28.6218 0.484673 28.5622 0.434888 28.5224 0.377445ZM42.9076 1.03159C42.966 1.09834 42.9861 1.17785 42.9638 1.25435C42.9638 1.2791 42.9076 1.25435 42.9076 1.25435C42.9121 1.21242 42.8939 1.17084 42.8566 1.13767C42.8566 1.13767 42.8566 1.13766 42.8566 1.10938C42.8566 1.08109 42.8566 1.07402 42.8566 1.05634C42.8566 1.03866 42.8923 1.00684 42.9076 1.01744V1.03159ZM35.9678 0.324406C35.9678 0.296119 35.9678 0.253688 36.024 0.271367C36.0801 0.289047 36.1874 0.349158 36.1874 0.416341H36.1159C36.0801 0.377446 35.9474 0.317335 35.9474 0.303192L35.9678 0.324406ZM43.2906 1.06341C43.2345 1.06341 43.2293 1.01744 43.2089 0.982085C43.1885 0.946726 43.1527 0.858329 43.3621 1.01391C43.3979 1.02098 43.3315 1.03159 43.2906 1.04219V1.06341ZM30.9123 0.483524C30.9752 0.518828 31.0514 0.540915 31.1319 0.54717C31.1676 0.54717 31.1319 0.582528 31.1319 0.603743C31.1319 0.624959 31.0553 0.578991 31.0195 0.575455C30.8969 0.53656 30.8408 0.430483 30.9123 0.462306V0.483524ZM29.6969 0.508275C29.6407 0.586065 29.6356 0.46938 29.508 0.46938C29.5199 0.454198 29.5398 0.442786 29.5636 0.437517C29.5874 0.432249 29.6132 0.433529 29.6356 0.441092C29.702 0.437556 29.7837 0.377445 29.6969 0.487058V0.508275ZM31.9898 0.540097C31.8927 0.540097 31.8672 0.458772 31.9285 0.458772C31.949 0.458167 31.9694 0.461472 31.9874 0.46833C32.0054 0.475188 32.0203 0.485334 32.0306 0.497665C32.0283 0.503889 32.023 0.509382 32.0156 0.513239C32.0081 0.517095 31.999 0.519085 31.9898 0.518882V0.540097ZM42.6625 1.24728C42.7953 1.31092 42.7034 1.42761 42.6625 1.37811C42.6455 1.35576 42.6366 1.33088 42.6366 1.30562C42.6366 1.28036 42.6455 1.25548 42.6625 1.23313V1.24728ZM43.1987 1.17656C43.2447 1.14827 43.2396 1.15534 43.2906 1.17656V1.27203C43.214 1.30385 43.2191 1.2296 43.1987 1.16242V1.17656ZM42.5144 1.24021C42.5808 1.24021 42.5859 1.33568 42.5451 1.33568C42.5042 1.33568 42.4991 1.33568 42.4787 1.31092C42.4583 1.28617 42.448 1.24374 42.5144 1.22606V1.24021ZM42.1774 0.964407C42.1519 0.964407 42.2233 0.844186 42.2336 0.886616C42.2438 0.929047 42.2336 0.960868 42.3102 0.978548C42.2744 1.00684 42.2336 0.982086 42.1774 0.950263V0.964407ZM27.0415 0.306729C27.0057 0.306729 26.9496 0.271369 26.9853 0.253689C27.0211 0.23601 27.1538 0.271369 27.0415 0.306729ZM42.2131 0.808826C42.0906 0.773467 42.2897 0.677998 42.2438 0.808826C42.2438 0.801754 42.2233 0.801754 42.2131 0.808826ZM42.5451 1.51601C42.5195 1.51601 42.4429 1.51601 42.4276 1.51601C42.4123 1.51601 42.5144 1.47004 42.5451 1.51247V1.51601ZM42.9178 1.39932C42.8821 1.39932 42.8668 1.39932 42.9178 1.33568C42.9638 1.36043 42.9638 1.39578 42.9178 1.39578V1.39932ZM43.1425 1.39932C43.1459 1.39225 43.1524 1.38609 43.1611 1.38172C43.1698 1.37735 43.1803 1.375 43.191 1.375C43.2018 1.375 43.2123 1.37735 43.221 1.38172C43.2297 1.38609 43.2362 1.39225 43.2396 1.39932C43.2368 1.40654 43.2308 1.41296 43.2224 1.41767C43.214 1.42238 43.2037 1.42512 43.1929 1.42552C43.1821 1.42591 43.1715 1.42393 43.1624 1.41986C43.1534 1.41579 43.1464 1.40984 43.1425 1.40286V1.39932ZM27.8228 0.373909L27.7768 0.377445C27.6798 0.335015 27.7258 0.317336 27.7768 0.33148C27.7856 0.326322 27.797 0.323795 27.8085 0.324458C27.82 0.325121 27.8306 0.328918 27.8381 0.335014C27.8455 0.341109 27.8492 0.349005 27.8482 0.356962C27.8473 0.364919 27.8418 0.372288 27.833 0.377445L27.8228 0.373909ZM12.8605 0.324406C12.7941 0.349158 12.6052 0.324406 12.7992 0.324406C12.8452 0.313799 12.8298 0.310264 12.8707 0.327943L12.8605 0.324406ZM28.7522 0.243082H28.7164C28.6705 0.197115 28.8696 0.179434 28.7624 0.246616L28.7522 0.243082ZM43.1323 1.56197C43.163 1.56197 43.1732 1.5938 43.1323 1.62562C43.1308 1.60533 43.1343 1.585 43.1425 1.56551L43.1323 1.56197ZM37.2036 0.501202C37.2597 0.458771 37.3057 0.490594 37.2138 0.490594L37.2036 0.501202ZM42.3714 0.911368C42.3459 0.911368 42.3714 0.876007 42.3714 0.879543C42.3714 0.883079 42.4072 0.883081 42.3817 0.90076L42.3714 0.911368ZM43.4898 1.66098C43.4898 1.67159 43.4643 1.65037 43.5 1.65037L43.4898 1.66098ZM38.4649 1.71048C38.4292 1.71048 38.4649 1.67159 38.4649 1.71048C38.4649 1.74937 38.5006 1.69634 38.5006 1.69987L38.4649 1.71048ZM35.5184 0.578992C35.5184 0.578992 35.4776 0.578992 35.4724 0.578992C35.4673 0.578992 35.5133 0.547169 35.5286 0.568385L35.5184 0.578992ZM42.6983 1.19424C42.6983 1.19424 42.6983 1.19424 42.6676 1.19424C42.637 1.19424 42.7085 1.16242 42.7085 1.18363L42.6983 1.19424ZM31.5251 0.462306C31.5251 0.462306 31.5506 0.462306 31.5659 0.462306C31.5812 0.462306 31.5404 0.462307 31.5353 0.451699L31.5251 0.462306ZM31.3514 0.462306C31.3514 0.462306 31.3514 0.462307 31.3514 0.441092C31.3514 0.419876 31.3872 0.434019 31.3514 0.437555V0.462306ZM42.7289 0.688604H42.7697C42.7697 0.688604 42.7595 0.674461 42.7391 0.663853L42.7289 0.688604ZM30.0595 0.377445C30.0339 0.352694 30.0595 0.338551 30.0595 0.377445V0.377445ZM43.2651 0.731036C43.2651 0.731036 43.2191 0.731035 43.2651 0.75225V0.731036ZM42.637 0.731036C42.6319 0.692141 42.6778 0.731036 42.637 0.731036V0.731036ZM42.3306 0.96087C42.3306 0.96087 42.3153 0.957333 42.3306 0.953797V0.96087ZM32.5311 0.412804C32.5311 0.412804 32.5362 0.412805 32.5311 0.405733V0.412804ZM28.4458 0.487058C28.4458 0.487058 28.4407 0.490595 28.4356 0.479987L28.4458 0.487058ZM28.6552 0.571921C28.6601 0.565216 28.6673 0.559452 28.6762 0.555136C28.6851 0.550821 28.6954 0.548086 28.7062 0.54717C28.6887 0.557021 28.6674 0.563158 28.6449 0.564848L28.6552 0.571921ZM26.1274 0.603743C26.0661 0.557776 26.1274 0.547169 26.1631 0.578992C26.163 0.582657 26.1614 0.586229 26.1587 0.589359C26.1559 0.592489 26.152 0.59507 26.1474 0.596851C26.1428 0.598631 26.1375 0.59955 26.1323 0.599519C26.127 0.599487 26.1218 0.598508 26.1172 0.596672L26.1274 0.603743ZM41.1459 1.36043C41.105 1.36043 41.1152 1.33214 41.1459 1.33921C41.1765 1.34628 41.1408 1.34275 41.1356 1.35336L41.1459 1.36043Z" />
</svg>

