<svg width="40" height="40" viewBox="0 0 40 40" fill="none" xmlns="http://www.w3.org/2000/svg">
<path d="M19.3115 11.665H12.8365C12.1523 11.6648 11.4845 11.8752 10.924 12.2676C10.3634 12.66 9.93719 13.2153 9.70318 13.8583L3.43651 31.095C3.21485 31.7033 3.36651 32.385 3.82318 32.8433L4.31151 33.3317L15.0148 22.6283C15.0132 22.585 15.0015 22.5417 15.0015 22.4983C15.0015 22.0039 15.1481 21.5205 15.4228 21.1094C15.6975 20.6983 16.088 20.3779 16.5448 20.1886C17.0016 19.9994 17.5043 19.9499 17.9892 20.0464C18.4742 20.1428 18.9196 20.3809 19.2693 20.7306C19.6189 21.0802 19.857 21.5257 19.9535 22.0106C20.0499 22.4956 20.0004 22.9982 19.8112 23.455C19.622 23.9119 19.3016 24.3023 18.8904 24.577C18.4793 24.8517 17.996 24.9983 17.5015 24.9983C17.4582 24.9983 17.4148 24.9867 17.3715 24.985L6.66818 35.6883L7.15651 36.1767C7.3806 36.4013 7.66432 36.5571 7.97414 36.6256C8.28396 36.6942 8.60692 36.6725 8.90485 36.5633L26.1415 30.295C26.7845 30.061 27.3399 29.6348 27.7323 29.0742C28.1247 28.5137 28.3351 27.8459 28.3348 27.1617V20.6867L31.6665 17.3567L22.6432 8.33334L19.3115 11.665ZM33.2332 15.1017L24.8998 6.76834L28.4332 3.23334L36.7665 11.5667L33.2332 15.1017Z" fill="black"/>
</svg>
