<svg width="40" height="40" viewBox="0 0 40 40" fill="none" xmlns="http://www.w3.org/2000/svg">
<path d="M33.332 11.6667V8.33333C33.332 6.495 31.837 5 29.9987 5H8.33203C5.57536 5 3.33203 7.24333 3.33203 10V30C3.33203 33.6683 6.32203 35 8.33203 35H33.332C35.1704 35 36.6654 33.505 36.6654 31.6667V15C36.6654 13.1617 35.1704 11.6667 33.332 11.6667ZM29.9987 26.6667H26.6654V20H29.9987V26.6667ZM8.33203 11.6667C7.9029 11.6475 7.49771 11.4635 7.20082 11.153C6.90394 10.8426 6.73825 10.4296 6.73825 10C6.73825 9.57044 6.90394 9.15743 7.20082 8.84697C7.49771 8.53651 7.9029 8.35253 8.33203 8.33333H29.9987V11.6667H8.33203Z" fill="black"/>
</svg>
